<?xml version="1.0" standalone="no"?>
<!DOCTYPE svg PUBLIC "-//W3C//DTD SVG 20010904//EN"
 "http://www.w3.org/TR/2001/REC-SVG-20010904/DTD/svg10.dtd">
<svg version="1.0" xmlns="http://www.w3.org/2000/svg"
 width="304.000000pt" height="304.000000pt" viewBox="0 0 304.000000 304.000000"
 preserveAspectRatio="xMidYMid meet">
<metadata>
Created by potrace 1.11, written by Peter Selinger 2001-2013
</metadata>
<g transform="translate(0.000000,304.000000) scale(0.100000,-0.100000)"
fill="#000000" stroke="none">
<path d="M1270 2905 c-124 -74 -236 -141 -250 -148 -14 -8 -135 -79 -270 -158
-135 -80 -318 -187 -407 -239 l-163 -95 6 -450 c3 -247 7 -569 9 -715 2 -146
4 -286 4 -311 l1 -47 403 -222 c221 -123 522 -290 669 -372 l267 -148 223 131
c123 72 239 141 260 153 20 11 217 127 437 256 l400 235 -5 450 c-3 248 -7
569 -9 715 -2 146 -4 286 -4 311 l-1 47 -112 62 c-62 35 -302 167 -533 295
-231 128 -440 244 -465 258 -163 90 -230 127 -233 126 -1 0 -103 -60 -227
-134z m600 -358 c129 -71 258 -142 285 -157 28 -15 123 -69 213 -119 90 -50
166 -91 170 -91 4 0 17 -8 30 -18 l22 -17 6 -410 c3 -226 7 -501 8 -612 l3
-203 -36 -21 c-20 -12 -54 -32 -76 -45 -22 -12 -247 -144 -499 -293 l-459
-270 -66 36 c-62 34 -289 159 -376 207 -22 13 -67 38 -100 56 -33 18 -80 44
-105 58 -25 13 -90 49 -145 80 -55 30 -119 65 -142 78 -24 13 -64 36 -90 50
-27 15 -51 30 -55 33 -7 6 -13 278 -22 1013 l-3 217 535 315 535 315 66 -36
c36 -20 172 -94 301 -166z"/>
<path d="M1179 2288 c-1 -30 2 -401 6 -773 2 -165 4 -398 4 -518 l1 -218 38 7
c82 15 246 66 332 103 192 83 355 211 446 352 62 95 69 118 54 182 -44 193
-135 381 -268 552 -112 144 -353 355 -372 325 -4 -7 -12 -49 -18 -94 -6 -44
-25 -173 -42 -286 -30 -207 -33 -224 -46 -315 -3 -27 -8 -59 -10 -70 -3 -11
-7 -38 -9 -60 -3 -22 -7 -51 -10 -65 -5 -26 -6 -31 -26 -173 -7 -48 -14 -85
-17 -82 -5 4 -7 156 -13 825 -1 214 -6 317 -13 322 -21 14 -36 8 -37 -14z"/>
</g>
</svg>
